<?xml version="1.0" encoding="utf-8"?>
<!-- Generator: Adobe Illustrator 19.2.1, SVG Export Plug-In . SVG Version: 6.00 Build 0)  -->
<svg version="1.1" id="svg4468" xmlns:svg="http://www.w3.org/2000/svg"
	 xmlns="http://www.w3.org/2000/svg" xmlns:xlink="http://www.w3.org/1999/xlink" x="0px" y="0px" viewBox="0 0 412.6 314.4"
	 style="enable-background:new 0 0 412.6 314.4;" xml:space="preserve">

<!-- NO GROUP ID FOR THE ENTIRETY OF THE SVG (NO CANADA ID)
NO STYLE
PROVINCES HAVE MULTIPLE PATHS INSTEAD OF ONE -->

<!-- SET MAP TO LOOK LIKE MOCK-UP(COLOURS)
I'LL WRITE JS TO SWITCH THE PROVINCES TO THEIR PROVINCIAL COLOURS-ISH -->

<path id="alberta" class="st0" d="M96,239c-16.7-4.4-14.9-3.7-15.9-6l-0.8-1.9l0.7-3.5c0.7-3.6,0.7-4.6-0.3-6.5
	c-0.3-0.6-1.2-2.5-2-4s-1.7-3.8-2.1-4.8c-0.4-1.1-1.1-2.6-1.6-3.3c-0.5-0.8-1-1.9-1.1-2.5c-0.1-0.6-0.6-1.6-1.1-2.2
	c-0.5-0.6-0.9-1.2-0.9-1.4s-0.3-0.7-0.6-1.2c-0.4-0.5-0.8-1.8-0.9-3c-0.2-1.3-0.6-2.5-1.1-3.2c-0.4-0.6-0.9-1.5-1.1-1.9
	c-0.2-0.5-0.8-1.2-1.4-1.6c-1.1-0.7-1.5-1.8-0.8-2.3c0.2-0.1,0.3-1,0.3-1.9c0-1.7,2-7.6,16-45.9l1.3-3.5l6.9,2.3
	c3.8,1.3,9.6,3.1,12.9,4c3.3,1,9,2.6,12.8,3.7c3.8,1.1,6.9,2,6.9,2.1c0.2,0.2-0.9,4.8-1.2,5c-0.2,0.1-0.7,0.3-1.1,0.4
	c-0.8,0.2-4.1,3.5-4.1,4c0,0.2,0.5,0.6,1.1,0.9c1.1,0.5,1.1,0.5,2-0.1c0.5-0.4,1-0.9,1.1-1.3c0.1-0.4,0.3-0.6,0.3-0.5
	c0.1,0.1-0.4,2.4-1.1,5.3c-1.6,6.6-3.3,13.8-5.7,23.7c-1,4.4-2.2,9.4-2.7,11.1c-2.1,8.7-3.9,16.4-4.9,20.6
	c-5.3,22.3-4.9,20.5-5.2,20.4C100.4,240.2,98.4,239.7,96,239z"/>
<g id="british-columbia">
	<path class="st1" d="M29.6,222.7c-2-1.3-5-5.2-5-6.5c0-0.7-0.2-1-0.9-1.3c-0.9-0.4-1.6-1.6-2-3.5c-0.1-0.5-0.5-1.4-0.9-2
		c-0.4-0.6-1-1.7-1.3-2.5c-0.3-0.8-1.1-2.4-1.8-3.5c-0.8-1.3-1.4-2.9-1.7-4.1c-0.2-1.1-0.6-2.4-0.8-3c-0.4-1-0.4-1.1,0.5-1.8
		c0.5-0.4,1.2-0.8,1.5-0.8c0.6,0,2.5,1.8,5.5,5.3c0.9,1.1,1.9,2.2,2,2.3c0.2,0.2,0.8,1,1.4,1.7c0.6,0.8,1.2,1.5,1.3,1.6
		c0.4,0.4,1.2,3.1,1.4,5c0.2,1.7,0.4,2.2,1.8,4c1.8,2.4,2,2.7,2.3,5.2c0.1,1,0.4,2.4,0.6,3c0.2,0.7,0.3,1.3,0.2,1.4
		C33.2,223.7,30.6,223.4,29.6,222.7z"/>
	<path class="st1" d="M79.1,234.5c-0.3-0.1-6.7-2.1-11.7-3.6c-1.7-0.5-20-7.4-27.5-10.3c-1.3-0.5-2.8-1.1-3.3-1.3
		c-1.2-0.4-1.4-0.8-1.4-2.2c0-0.8-0.2-1.3-0.7-1.7c-1.8-1.5-2.5-2.3-2.5-2.9c0-0.4-0.1-0.7-0.3-0.7c-0.8,0-1.9-1.7-2-3.1
		c-0.3-2.3-1.4-4.4-3.2-6.2c-1.7-1.7-1.7-1.7-1.5-3.2c0.1-1.2,0.1-1.5-0.3-1.5c-0.3,0-0.5-0.1-0.6-0.2c-0.1-0.1-0.8-0.6-1.6-1.1
		c-0.8-0.5-1.5-1-1.5-1.2c0-0.2-0.1-0.7-0.2-1c-0.2-0.8-0.2-1.4-0.1-4.8c0-2.8,0.1-2.9,1-3.7c0.9-0.7,0.9-0.9,0.6-1.8
		c-0.2-0.5-0.3-1.5-0.3-2.2c0-0.9-0.3-1.7-1.3-3c-1.1-1.5-1.2-2-1.1-2.9c0.1-0.6,0.5-1.3,0.8-1.6c0.7-0.6,0.6-1.1-0.4-3.2
		c-0.5-1.1-0.6-1.8-0.6-5.3c0-3.9,0-4.1,0.8-4.8c0.4-0.4,1.5-1.1,2.5-1.4c2.2-0.8,4-2.4,4-3.6c0-1.2,0.7-2.7,1.8-4c0.9-1,1-1.3,1-3
		c0-1.7-0.1-2-0.9-2.8c-1.1-1-2.9-4.5-3.5-6.5c-0.3-1.2-0.2-1.9,0.5-4.9c0.7-3.1,0.8-3.7,0.5-5.3c-0.2-1-0.4-3.1-0.5-4.7
		c-0.1-1.6-0.2-3.3-0.3-3.6c-0.1-0.4-0.2-1.2-0.3-1.9c-0.1-0.7-0.6-3-1.1-5.1c-0.5-2.1-1-4.2-1.1-4.6c-0.1-0.4-0.6-0.9-1.3-1.2
		c-2.2-0.9-2.5-0.9-3.1,0.1c-0.4,0.7-1.1,1.1-2.5,1.6c-1,0.4-2.5,0.9-3.1,1.3c-0.7,0.3-1.3,0.6-1.3,0.6c0,0,0.1-0.5,0.2-1
		c0.4-1.6,0.1-5.3-0.5-6.3c-0.6-1-0.6-3.9,0.1-3.7c0.2,0.1,3.4,2,7,4.4c9.9,6.5,20.7,13.1,26,15.8c2.6,1.3,4.8,2.5,5,2.7
		c0.9,0.6,10.5,5.5,14.1,7.1c2.2,1,7.1,3,10.8,4.5c3.7,1.4,6.8,2.7,7,2.8s0.1,0.6-0.1,1c-0.2,0.4-1.8,4.9-3.6,10
		c-1.8,5.1-3.9,10.7-4.5,12.5c-7.2,19.7-8.7,24.2-8.7,25.7c0,0.9-0.2,1.9-0.5,2.3c-0.7,1-0.3,2.3,0.9,3.1c1.5,0.9,3.3,4.4,3.6,6.6
		c0.1,1.2,0.5,2.3,1.1,3.2c0.5,0.8,0.9,1.5,0.9,1.7c0,0.2,0.3,0.7,0.7,1.1c0.4,0.4,0.9,1.5,1.1,2.3c0.2,0.8,0.5,1.6,0.7,1.7
		c0.4,0.2,1.7,2.9,2,4c0.1,0.5,1.2,3,2.4,5.4c1.3,2.6,2.2,4.9,2.2,5.5c0,0.5-0.2,2.3-0.5,3.9c-0.6,3-0.5,4.3,0.4,5.6
		C79.6,234.4,79.6,234.6,79.1,234.5z"/>
	<path class="st1" d="M7.4,175.5c-1.3-2.9-1.7-6.4-1.5-11.4c0.1-2.9,0.3-4.7,0.6-5c0.2-0.3,0.4-0.7,0.4-1c0-0.8,1.4-0.8,2.6,0.1
		c1.5,1,3.5,3,3.5,3.5c0,0.2-1.3,1.7-2.8,3.3c-3.3,3.4-3.3,3.6-2,8.3c0.4,1.5,0.8,3.1,0.8,3.4C8.9,177.7,8.1,177.1,7.4,175.5z"/>
</g>
<path id="manitoba" class="st2" d="M156.5,157.1l-0.2,2c-0.1,1.1-0.3,2.2-0.3,2.5s-0.2,1.2-0.3,2.2c-0.1,0.9-0.3,1.9-0.3,2.2
	c0,0.3-0.3,2.3-0.6,4.5c-0.5,3.8-0.5,4.1,0,4.9c0.5,0.9,0.5,0.9-0.4,2c-0.5,0.6-1,1.3-1.2,1.6c-0.2,0.3-0.5,2.3-0.6,4.6
	c-0.1,2.2-0.3,4.6-0.3,5.3c-0.1,0.7-0.2,2.5-0.3,4.1s-0.3,3.7-0.3,4.7c-0.3,4.3-0.5,6.1-0.6,8.4c-0.1,1.4-0.2,3.2-0.3,4.1
	s-0.2,3-0.3,4.7c-0.1,1.7-0.2,3.7-0.3,4.4s-0.2,2.7-0.3,4.5c-0.1,1.8-0.3,3.8-0.3,4.4s-0.2,2.7-0.3,4.7s-0.3,3.8-0.3,4.1
	c-0.2,0.9-0.6,7.9-0.6,10l0,2l1.9,0.2c3,0.3,5.9,0.6,6.7,0.8c0.4,0.1,1.6,0.2,2.5,0.3c1.8,0.2,2.9,0.3,5.6,0.7
	c0.9,0.1,3.1,0.3,4.7,0.4s4.4,0.2,6.1,0.3l3.2,0.1l0.2-1.5c0.1-0.8,0.3-3.2,0.4-5.3c0.1-2.1,0.2-4.7,0.3-5.9
	c0.1-1.2,0.2-4.3,0.3-6.9c0.3-8.9,0.4-9.9,1.2-11.1c0.4-0.6,2.6-3.2,4.9-5.7c2.3-2.5,4.9-5.2,5.6-6c0.8-0.9,1.5-1.7,1.7-1.9
	c3-3.4,4.5-5.1,6.1-7c1.1-1.3,2.9-3.4,4.1-4.7c1.2-1.3,2.6-2.9,3.2-3.6c0.6-0.7,1.8-2,2.6-2.9c0.9-0.9,1.6-1.9,1.6-2.1
	c0-0.4-1.6-1-3-1.3c-2.2-0.4-2.8-0.6-3.1-1.1c-0.3-0.4-0.8-0.5-2.3-0.5c-1,0-2,0.2-2.1,0.4c-0.3,0.4-3.9,0.8-4.6,0.6
	c-0.3-0.1-0.4-0.4-0.2-0.8c0.2-0.7,0.2-1-0.7-5.2c-0.6-3-0.8-3.9-1-5.6c-0.3-2-1-2.6-4.3-3.3c-2.1-0.4-2.8-0.7-3.1-1.2
	c-0.4-0.7-0.4-3.2,0-6.5l0.3-2.1l-1.7,0c-0.9,0-1.8-0.1-1.9-0.1c-0.1,0-1.3-0.2-2.6-0.3s-2.6-0.3-2.8-0.3c-0.3,0-1.4-0.2-2.6-0.3
	c-1.2-0.1-2.5-0.3-2.8-0.3c-0.4-0.1-1.5-0.2-2.5-0.3c-1-0.1-3-0.3-4.4-0.5c-1.4-0.2-3.3-0.4-4.4-0.5c-1-0.1-2.5-0.3-3.3-0.4
	L156.5,157.1z M165.4,210.8c1.2,0,2,0.6,2.6,1.8c0.4,0.7,0.8,1.4,0.9,1.4c0.6,0.4,2,4.2,1.7,4.6c-0.2,0.3,0.4,2,1,3.1
	c0.2,0.4,0.4,1.4,0.3,2.3c-0.1,1.7,1,5.6,2,7.3c0.4,0.7,0.6,1.8,0.6,3.9c0.1,2.9,0.1,3-0.7,3.1c-0.4,0.1-1,0.4-1.3,0.9
	c-0.7,0.9-1.2,1-1.9,0.3c-0.5-0.5-0.4-2.8,0.3-3.8c0.2-0.3,0.5-1,0.6-1.5c0.1-0.5,0.3-1.1,0.5-1.4c0.6-0.8,0.6-1.5-0.1-1.9
	c-0.5-0.3-0.7-0.3-1,0.2c-0.4,0.7-1.2,0.8-1.2,0.3c0-0.2,0.2-0.8,0.4-1.4c0.8-2.3-0.5-4.3-2.5-3.7c-0.8,0.3-1,0.2-1.6-0.4
	c-0.3-0.4-0.8-1.3-1.1-2.1c-0.3-0.8-0.8-1.9-1.3-2.5c-0.5-0.7-0.7-1.3-0.6-2c0.1-0.9,0-1-1.4-1.7c-2-1.1-2.9-0.8-2.9,1.1
	c0,0.7-0.1,2-0.1,2.8c-0.3,4.3-0.3,4.3,1,5.3c2.7,2.2,3,2.5,3.4,4.4c0.2,1,0.4,2.4,0.4,3c0,0.6,0.4,1.8,0.8,2.7
	c1,2.1,1.1,3.7,0.1,3.9c-1,0.3-1.4,0.2-1.7-0.2c-0.2-0.3-1.1-4.3-1.7-7.7c-0.3-1.9-0.8-2.5-3-3.9c-1.7-1.1-2.6-2-2.5-2.6
	c0-0.2,0.1-0.7,0.1-1s0.2-0.8,0.5-1c0.3-0.3,0.4-1.2,0.4-2.5c0-2.1,0-2.1-1.2-2.7c-1.3-0.8-1.8-1.5-1.8-2.6c0-0.6,0.2-0.8,0.8-0.8
	c1.2,0,1.5-1,0.8-2c-0.3-0.4-0.6-0.9-0.6-1.1c0-0.4,1.5-1.1,2.3-1c0.7,0,2.4,1.6,2.4,2.2c0,0.3,0.3,0.8,0.7,1.2l0.7,0.7l0.4-1.1
	c0.7-1.9,2-3.5,3-3.8C164.6,210.9,165,210.8,165.4,210.8z"/>
<path id="new-brunswick" class="st3" d="M336.6,266.6c-0.7-0.2-1.6-1.2-2.1-2.4c-0.2-0.5-0.7-0.9-1.1-1c-1.3-0.3-3.3-5.5-3.3-8.6
	c0-1-0.2-1.6-0.7-2.1c-1.2-1.2-2.9-2-3.9-2l-1,0l-0.1-2c-0.1-1.1-0.1-2.1,0-2.2c0.1-0.1,1-0.2,2-0.3c2.3,0,3.6-0.5,4.9-1.6
	c0.6-0.5,1.9-1.1,3.3-1.5c2.2-0.6,2.4-0.6,3.5-0.2c1.1,0.5,1.2,0.5,1.8-0.2c1.3-1.4,4.9-2.4,4.9-1.5c0,0.2-0.2,0.7-0.5,1.2
	c-0.7,1.2-0.6,3.8,0.1,4.7c0.3,0.4,0.7,1.2,0.8,1.8c0.1,0.6,0.8,1.6,1.7,2.4c1.4,1.3,1.5,1.4,3.4,1.4c1,0,2,0.1,2.1,0.2
	c0.1,0.1-0.5,0.9-1.4,1.8c-0.9,0.9-1.9,2.4-2.4,3.3c-1.1,2.3-5,6.3-6.2,6.3c-0.7,0-1,0.2-1.3,0.9
	C340.6,266.5,338.5,267.1,336.6,266.6z"/>
<g id="newfoundland">
	<path class="st4" d="M371.4,232.3c-0.9-1.1-0.8-2.4,0.1-3.7c1-1.3,1.1-2.9,0.2-3.2c-0.8-0.3-0.8-0.9,0-2.2c0.6-1,0.6-1.4,0.5-3.8
		c-0.3-4.4-0.2-9.5,0.3-14.6c0-0.3,0.2-1.7,0.3-3.1c0.3-2.9,0.9-3.9,3.1-5.7c1.2-0.9,1.6-1.1,1.9-0.7c1.2,1,1.4,2.1,1.3,5.9
		c-0.1,2-0.2,3.8-0.3,4c-0.1,0.2-0.3,1.1-0.4,2.1l-0.2,1.9l0.8-0.9c0.4-0.5,0.8-1,0.8-1.2c0-0.5,1.3-0.6,2.4-0.2
		c1.2,0.4,1.2,0.5,1.1,2.1l-0.1,1h1.6c0.9,0,1.6-0.1,1.7-0.3c0.1-0.1,0.8-0.5,1.7-0.7c0.8-0.2,2.2-0.7,3.1-1.1
		c1.6-0.7,3-0.7,4.3-0.1c0.7,0.4,1,2,0.5,2.8c-0.3,0.5-0.3,0.7,0.2,1.2c0.5,0.5,0.8,0.6,2.2,0.4c2-0.3,2.3-0.2,2.3,0.8
		c0,0.9-0.6,2-1.7,2.9c-0.3,0.3-0.4,0.5-0.3,0.5c0.2,0,0.4,0.5,0.4,1.1c0,0.6,0.1,1.3,0.2,1.6c0.2,0.6,0.7,0.7,0.7,0.1
		c0-0.6,1.6-2.5,2-2.5c0.2,0,0.6,0.6,0.8,1.2c0.4,1.4,0.9,1.5,2.2,0.6c0.5-0.4,1-0.6,1.2-0.4c0.1,0.1,0.3,1.2,0.3,2.3
		c0,1.1,0.1,2.6,0.1,3.2c0.1,1.7-1.2,3.5-2.5,3.6c-0.8,0.1-1.1-0.1-1.3-0.7c-0.4-1-0.7-1-1.2,0c-0.8,1.6-1.5,0.6-1.9-2.7
		c-0.3-2.4-0.6-3.4-1.2-3.4c-0.2,0-0.3,0.5-0.3,1.1c0,0.9-0.2,1.4-1.2,2.3c-1.1,1.1-1.3,1.4-1.5,3.4c-0.4,3-1.2,3.8-3.6,3.9
		c-2.1,0.1-2.3-0.4-0.6-2c0.9-0.8,1.1-1.3,1.1-2.3c0-1.2,0-1.2-0.7-0.9c-1.2,0.6-2.5,0.9-2.9,0.6c-0.4-0.3-0.9-0.1-4,1.8
		c-0.9,0.6-2.1,1.1-2.6,1.2c-0.5,0.1-1.3,0.2-1.9,0.3c-0.6,0.1-2.5,0.7-4.2,1.4c-1.7,0.7-3.3,1.3-3.5,1.4
		C372.2,233.1,371.8,232.8,371.4,232.3z"/>
	<path class="st4" d="M332.6,209.8c-0.1-0.1-0.6-0.2-1.3-0.3c-0.7-0.1-1.5-0.4-1.8-0.7c-0.5-0.4-1-0.5-2.4-0.4
		c-2.3,0.2-2.5,0.1-2.7-1.1c-0.4-2-0.4-2.2-0.4-2.6c0-0.2-0.2-0.6-0.5-0.8c-0.4-0.4-0.6-0.4-1.5,0.1c-0.6,0.3-1.3,0.6-1.7,0.6
		c-0.8,0-1.9-1.1-1.4-1.4c0.4-0.2,0.4-2.1,0.1-3.2c-0.1-0.4-0.7-0.9-1.5-1.2c-2.3-0.9-4.7-4.7-3.9-6.1c0.2-0.3,0.5-0.6,0.6-0.6
		c0.3,0,0.9-1.2,1-2.3c0.1-0.3,0.4-0.8,0.8-1.1c0.4-0.3,0.8-0.9,1-1.3c0.3-0.8,0.4-0.8,1.7-0.5c0.7,0.2,1.7,0.5,2.1,0.8
		c1.1,0.8,2.2,0.5,3-0.6c0.6-0.9,0.7-0.9,2.2-0.7c0.9,0.1,1.8,0.2,2.1,0.2c0.4,0,0.5,0.2,0.4,1.1c-0.1,0.6-0.2,1.1-0.2,1.2
		c-1.4,0.9-2.5,1.9-2.6,2.3c-0.1,0.3-0.6,0.8-1.1,1.2c-1.1,0.7-1.2,1.1-0.3,1.9c0.7,0.7,2.6,0.4,3.2-0.4c0.7-1,2.3-1.6,3.4-1.2
		c1.5,0.4,2.6-0.1,3.3-1.5c0.5-1.2,0.6-2.8,0.1-3.3c-0.2-0.2-0.6,0-0.9,0.4c-0.4,0.4-1.1,0.7-1.7,0.7c-2.4,0-2.6-0.6-1.1-3.3
		c0.5-1,0.9-2.1,0.9-2.5c0-0.9-1-3.3-1.7-3.9c-0.3-0.2-0.5-0.7-0.5-0.9c0-0.9-1.6-3.6-2.6-4.5c-0.7-0.6-1-1.3-1.2-2.2
		c-0.1-0.7-0.4-2.3-0.6-3.4c-0.2-1.1-0.4-2.9-0.4-4.1c0-2.4-0.6-3.6-1.8-3.9c-0.4-0.1-1.3-0.5-1.8-0.8c-1.1-0.7-1.3-1.6-0.5-2.7
		c0.3-0.5,0.4-0.9,0.2-1.4c-0.3-0.7-0.3-1,0.1-2.7c0.2-1.1,0.1-1.1-2.8-1c-0.7,0-1.2,0-1.1-0.1c0.1-0.1-0.1-1.2-0.4-2.4
		c-0.4-1.8-0.7-2.3-1.1-2.4c-0.3-0.1-0.8-0.3-1-0.6c-0.4-0.7-1.7-5.4-1.5-5.6c0.3-0.3,4,2.9,5.2,4.6c0.7,1,1.6,1.8,1.9,1.8
		c0.3,0,0.8,0.4,1.2,0.9c0.4,0.5,1.1,1.2,1.7,1.6c0.7,0.4,1.3,1.2,1.7,2.2c0.4,1,0.9,1.6,1.2,1.6c0.3,0,0.8,0.5,1.2,1
		c0.5,0.8,1,1.1,1.9,1.2c1.1,0.2,1.4,0.4,2,1.5c0.4,0.7,0.8,1.9,0.9,2.6c0.2,1.2,0.3,1.3,1.6,1.6c0.8,0.2,1.7,0.7,2,1
		c0.5,0.5,0.5,0.7,0.1,2.1c-0.4,1.3-0.4,1.7,0,2.3c0.2,0.4,0.5,1.1,0.6,1.5c0.1,0.7,0.6,0.9,3.5,2c1.9,0.6,3.6,1.2,3.9,1.2
		c0.3,0,1.1,0.6,1.8,1.3l1.2,1.3l2.8,0.1c1.5,0.1,3.3,0.3,4,0.6c1.2,0.5,2,0.3,2.9-0.7c0.3-0.3,0.9-0.2,2.7,0.2
		c1.3,0.3,2.4,0.8,2.5,0.9c0.4,0.6-0.1,1.8-1,2.1c-0.5,0.2-1.6,1.2-2.5,2.3c-0.9,1-2.1,2.3-2.6,2.9c-0.5,0.5-1.6,1.7-2.4,2.5
		c-1.5,1.6-2.2,3.5-1.4,3.8c0.7,0.3,3.9-3.1,4.1-4.3c0.1-0.7,0.9-1.8,2.6-3.6c2.2-2.3,2.5-2.6,3.6-2.6c1,0,1.3,0.2,1.9,1
		c0.6,0.9,0.8,1,1.5,0.8c1.5-0.4,3-0.3,3.8,0.3c0.4,0.3,1.6,1,2.6,1.6c1,0.6,1.9,1.1,2,1.1c0,0-0.1,0.4-0.3,0.9
		c-0.5,1.2,0.1,3,1.4,4.4c1,1,2.4,3.2,2.4,3.9c0,0.5-2.1,3.8-3.2,4.9l-1,1l-1.3-1.6c-0.7-0.9-1.4-1.7-1.6-1.8
		c-0.2-0.1-0.8,0-1.4,0.3c-0.6,0.3-1.9,0.7-2.8,0.9c-0.9,0.2-2.7,0.8-3.9,1.3c-1.2,0.5-3.8,1.5-5.7,2.2s-4.1,1.6-4.9,1.9
		c-3,1.2-9.5,3.5-10.7,3.7c-1,0.2-1.6,0.1-3-0.6c-1-0.5-1.9-0.8-2.1-0.6c-0.2,0.1-0.3,0.8-0.4,1.5c0,1.5-0.4,4.3-0.5,4.5
		C334.2,209.8,332.7,209.9,332.6,209.8z"/>
</g>
<g id="nova-scotia">
	<path class="st5" d="M347.2,276.7c-1.8-0.4-2.7-1.4-3.5-4c-0.4-1.3-0.4-2-0.2-2.6c0.5-1.2,2.5-4.3,3.9-5.7c0.7-0.7,1.4-1.6,1.6-1.9
		s0.8-0.7,1.2-0.8c0.9-0.2,3.6-2.1,3.6-2.4c0-0.3-1.4,0.2-3.1,1.2c-2.9,1.7-2.5-1.1,0.7-4.7c1.4-1.6,1.7-1.8,2.7-1.8
		c3,0.1,6.3-0.4,7.4-1.2c0.7-0.5,1.3-0.7,1.6-0.5c0.3,0.1,1.2,0.2,2,0.3c1.6,0.1,2.9,0.8,3.5,1.9c0.3,0.7,0.2,0.9-1.7,2.8
		c-1.1,1.1-2.2,2.2-2.5,2.5c-1.1,1.2-3.9,3.3-4.5,3.4c-0.4,0.1-1.1,0.8-1.6,1.7c-0.8,1.4-1,1.5-1.9,1.4c-0.8-0.1-1,0-1.3,0.6
		c-0.2,0.4-0.4,0.9-0.4,1.1s-0.4,1.3-0.9,2.6c-0.7,1.7-1.4,2.8-3,4.4c-1.1,1.2-2.1,2.1-2.1,2.1C348.8,277.1,348,276.9,347.2,276.7z"
		/>
	<path class="st5" d="M368.3,253c-0.3-0.2-1.2-1.1-2-2c-1.1-1.2-1.4-1.7-1.2-2c0.2-0.2,0.8-1.7,1.3-3.3c1.1-3.2,2.1-5.4,2.5-5.4
		c0.6,0,1.3,1.4,1.3,2.5c0,1.8,0.3,2.4,1.2,2.7c1.1,0.3,2.5,1.7,2.5,2.5c0,0.3-0.4,1.3-1,2.1c-0.7,1.1-1.2,1.5-1.7,1.5
		c-0.5,0-1,0.4-1.4,0.9C369.1,253.5,368.9,253.6,368.3,253z"/>
</g>
<g>
	<path class="st6" d="M68.6,34.8c-0.5,0-1.3,0.1-2.4,0.2c-1.7,0.2-3.2,0.4-3.5,0.5c-0.3,0.1-0.4,0.6-0.3,1.7c0.2,1.8-0.2,2.2-1,1.1
		c-0.3-0.4-0.6-0.8-0.7-0.8c-0.5,0-5.1,8.2-6,10.8c-0.5,1.5-1.2,3.1-1.4,3.5c-0.7,1.1-0.5,1.4,1.5,2.8c4.4,3,4.5,3.3,2.7,7
		c-0.6,1.3-1.2,2.9-1.3,3.7c-0.1,1.2-0.1,1.4,1.1,2.3c0.7,0.5,1.2,1.1,1.1,1.2c-0.1,0.1-0.2,1-0.2,2c-0.1,1.9-0.4,2.6-1.7,2.9
		c-0.9,0.2-1.4,1-1.4,2.1c0,0.4-0.1,0.8-0.3,0.8s-0.4,0.4-0.5,0.8c-0.2,0.6,0,1,0.4,1.5c0.4,0.5,0.6,1.1,0.6,2.1
		c0,0.8,0.3,2,0.8,2.9c0.5,1.1,0.7,1.9,0.6,2.6c-0.1,0.7,0,1.4,0.5,2.3c0.6,1.2,0.6,1.3,0.1,3.1c-0.7,2.5-1.5,6.6-1.7,9.3
		c-0.1,1.2-0.2,2.5-0.4,2.8c-0.1,0.4,0.1,0.9,0.5,1.4c0.8,1,1.3,2.1,1.9,4.4c0.5,2,1.1,3.3,2,4.3l0.6,0.7l-0.7,0.7
		c-0.4,0.5-0.7,1.1-0.7,1.9c0,0.6-0.2,1.4-0.3,1.8c-0.3,0.6-0.1,0.7,1.6,1.5c1.1,0.5,2.5,1.3,3.2,1.7c1,0.6,1.4,0.8,2.3,0.6
		c1.3-0.2,1.2-0.6,1.2,4.5l0,3.9l3.4,1.4c11.2,4.5,24.3,9,37,12.6c3.7,1.1,8.8,2.5,11.2,3.3c2.5,0.8,5,1.5,5.5,1.5
		c0.5,0.1,3,0.6,5.6,1.1c2.6,0.5,5.1,1,5.5,1.1c0.5,0.1,2.3,0.4,4.1,0.8c1.8,0.3,3.6,0.7,4.1,0.8c0.5,0.1,2.9,0.6,5.3,1.1
		c4.9,1,6.7,1.1,6.7,0.6c0-0.2,0.1-0.7,0.1-1c0.1-0.3,0.2-1.8,0.3-3.3c0.1-1.5,0.3-3,0.3-3.5c0.1-0.4,0.2-1.7,0.3-2.8
		c0.3-3.2,0.8-8.3,0.9-9.8c0.1-0.5,0.2-2.2,0.3-3.7c0.1-1.5,0.3-3,0.3-3.3c0.1-0.3,0.2-1.7,0.3-3.1c0.1-1.5,0.3-3.8,0.5-5.2
		c0.2-1.4,0.2-2.7,0.1-2.9c-0.1-0.2-2.2-1.3-4.6-2.6c-5.2-2.7-10.5-5.5-14.4-7.6l-2.8-1.5l-1.9-3.1l-1.9-3.1l-3.5-0.8l-3.5-0.8
		l-3-4.1c-1.7-2.2-4.3-5.8-5.8-8c-1.5-2.1-4.6-6.3-6.8-9.3c-2.2-3-4.2-5.8-4.5-6.2c-0.5-0.7-0.4-0.9,0.6-3.6
		c3.9-10.2,3.8-10.1,1.9-12.7c-0.6-0.8-1.1-1.5-1.1-1.7s-0.2-0.3-0.3-0.3c-0.2,0-0.7-0.3-1.2-0.6c-0.5-0.3-1.4-0.7-2.1-0.7
		c-1.1-0.1-1.4,0-2.5,0.9c-1.1,0.9-1.4,1-2.1,0.7c-1-0.4-1-0.6,0.1-1.7c0.5-0.5,0.8-1,0.7-1.2s-0.2-1.1-0.2-2c0-2.7-0.4-2.7-3.2,0
		c-1.3,1.3-2.5,2.4-2.5,2.4c-0.2,0-1.2-1-1.2-1.3c0-0.1-0.1-2.1-0.1-4.3c0-4-0.1-4-0.8-4.4c-1.1-0.5-1.6-0.5-2.6,0.3
		c-0.6,0.5-1.2,0.6-2.3,0.6c-1,0-1.4-0.2-1.2-0.4c0.1-0.2,0.3-0.7,0.4-1.2c0.1-0.8,0-0.9-1.3-1.6c-1.4-0.7-3.7-0.9-5.7-0.4
		c-0.4,0.1-2.3,0.3-4.1,0.4c-2.4,0.1-3.3,0.3-3.5,0.6c-0.1,0.2-0.7,0.4-1.2,0.4c-0.9,0-0.9-0.1-0.9-1.3
		C69.9,35.3,69.8,34.8,68.6,34.8z M94.5,78.6c8.1,0,8.8,0.1,8.8,1.4c0,0.3-0.7,1.1-1.5,1.8c-1,0.8-1.4,1.4-1.2,1.6
		c0.4,0.4,4.7,2.1,6.8,2.8c1.5,0.4,1.5,0.5,1.3,1.5c-0.2,1.1-0.7,1.8-1.1,1.8c-0.2,0-0.8,0.4-1.5,0.8l-1.2,0.8l-1.8-0.8
		c-1-0.5-2.1-1-2.4-1.2c-0.8-0.4-1.2,0.1-1.9,2.1c-0.6,1.9-0.8,2.1-3.2,2.9c-1.1,0.4-2.1,0.7-2.3,0.7c-0.6,0-0.3-0.9,0.5-1.9
		c1.8-2.2,1.8-2.1,0.8-2.1c-0.6,0-1.3,0.3-1.9,0.8c-1.5,1.3-2.7,1.5-4.1,0.7c-0.7-0.4-1.4-1-1.6-1.5c-0.3-0.7-0.2-0.9,1.8-2.9
		c1.2-1.2,2.8-2.4,3.6-2.8c0.8-0.4,1.4-0.9,1.5-1.2c0.2-0.9-1-1.9-2.5-1.9c-0.7,0-2.1-0.3-3.2-0.7c-1.6-0.6-2-0.8-2.1-1.4
		c-0.1-0.4,0-0.9,0.2-1C86.6,78.6,90.3,78.5,94.5,78.6z M105.1,118.7c0.1,0,0.7,0.6,1.3,1.4c0.6,0.8,1.5,1.9,2.1,2.4
		c1.7,1.5,2.9,2.9,3.7,4.2c0.6,1,0.9,1.2,2.8,1.7c1.9,0.5,2.2,0.5,3.9,0c1.2-0.3,2.1-0.8,2.5-1.4c0.9-1.2,2.1-1.7,4.1-1.8
		c1.7-0.1,1.7-0.1,1.6,0.8c-0.1,1.2-1.3,2.6-2.7,3c-0.6,0.2-1.8,0.9-2.5,1.6c-0.7,0.7-2.2,1.7-3.4,2.2c-1.1,0.5-2.6,1.2-3.2,1.6
		c-0.7,0.4-1.5,0.6-2,0.5c-0.6-0.1-1.1,0.1-1.8,0.7c-0.5,0.5-1.5,1.1-2.2,1.4c-0.7,0.3-1.6,0.5-2,0.4c-5.8-0.5-6.3-0.7-9.1-3.3
		c-2.5-2.3-2.5-2.9,0.1-2.9c1,0,2,0.1,2.4,0.3c0.7,0.4,1.6,0,2.9-1.2c0.7-0.6,1.1-0.8,2.1-0.7c1.4,0.1,2.2-0.3,2.2-1.3
		c0-0.9-1.3-4.6-2.4-6.9C104.7,119.6,104.6,118.7,105.1,118.7z"/>
	<path class="st6" d="M138.4,58.7c-2.2-0.7-5.7-1.7-7.8-2.3c-2.1-0.6-4.9-1.4-6.2-1.8c-2.4-0.7-2.4-0.7-1.4-0.9
		c0.6-0.1,2.6-0.1,4.5,0c2.8,0.1,3.7,0.3,4.9,0.9c1.4,0.7,5.3,1.8,5.5,1.6c0.1-0.1-0.7-0.9-1.7-1.9c-2-1.9-3.5-2.7-4.9-2.7
		c-1.1,0-6-1.3-8-2.1c-1.4-0.6-1.6-0.7-2.1-2.5c-0.3-1-0.6-2-0.6-2.2c0-0.3,1.5-0.9,5.6-2l1.4-0.4l-1.1-0.3c-0.6-0.1-1.5-0.3-2-0.3
		c-1-0.1-2-1.5-1.6-2.3c0.1-0.2,0-0.5-0.2-0.7c-0.2-0.1-0.6-0.6-0.9-1.1c-0.7-1.2-0.5-2.3,0.9-3.7c1.2-1.3,1.7-2.2,1.7-3
		c0-1.6,4.6-4.1,9.3-5.1c1.7-0.3,3.7-0.7,4.5-0.8c1.4-0.2,1.5-0.2,1.8,0.7c0.4,1.1,0,2.9-0.9,4.7c-0.4,0.7-0.6,1.4-0.5,1.5
		c0.1,0.1,0.8-0.3,1.6-1l1.4-1.2l1.9,1.1c1.1,0.6,2.3,1.4,2.7,1.8l0.8,0.6l-0.6,1.5l-0.6,1.5l1.3-0.3c0.7-0.2,1.4-0.4,1.5-0.5
		c0.1-0.1,0-0.8-0.3-1.6c-0.3-0.7-0.4-1.4-0.4-1.4c1.3-0.9,1.8-1.1,1.9-0.9c0.2,0.3-6.6,27.6-6.9,27.9
		C142.6,59.8,140.7,59.4,138.4,58.7z"/>
	<path class="st6" d="M107.5,38.4c-0.1-0.2-0.3-1.6-0.5-3.1c-0.3-2.5-0.5-3-2-5.6c-1-1.6-1.7-3-1.7-3.2c0-0.5,0.9-1.5,1.9-2.1
		c0.4-0.3,1.6-1.7,2.5-3.3c0.9-1.5,2-3,2.3-3.4c0.3-0.3,1.6-2,2.9-3.7c2.2-2.9,2.3-3.1,2.3-4.8c0-1,0-2,0-2.2
		c-0.1-0.6,0.9-1.6,1.3-1.4c0.2,0.1,0.9,0.2,1.5,0.3c0.6,0.1,1.9,0.4,2.8,0.8s2.2,0.8,3,1c1.1,0.3,1.4,0.5,1.7,1.3
		c0.2,0.6,1.1,1.8,2,2.7c1.7,1.7,1.7,1.7,3.5,1.7c2.6-0.1,2.9,0.3,4.4,4.8c1.8,5.7,1.6,6.3-3.1,7.4c-2.2,0.5-4.3,1.5-4.9,2.1
		c-0.1,0.1-0.6,0.4-1.1,0.6c-0.5,0.2-1.3,0.7-1.7,1.1c-0.4,0.4-1.7,1.4-2.9,2.3c-1.7,1.2-2.3,2-3.2,3.7c-0.6,1.2-1.4,2.3-1.8,2.5
		c-0.4,0.2-0.7,0.3-0.7,0.3c0-0.1-0.4,0-2.7,0.5c-0.4,0.1-1.9,0.2-3.2,0.3C108.2,38.8,107.6,38.7,107.5,38.4z"/>
</g>
<g>
	<path class="st1" d="M162.5,76.9c-1.5-0.4-3.8-1.7-5.5-3.2c-0.5-0.4-1.5-1.1-2.2-1.4c-0.7-0.3-1.3-0.8-1.3-1c0-0.2-0.1-0.6-0.1-0.8
		c-0.1-0.7-1.4-0.6-1.6,0.1c-0.3,0.9-1.9,1.6-4,1.8c-1,0.1-2.1,0.3-2.3,0.6c-0.9,0.9-2.6,1.2-7.1,0.9c-6.6-0.3-8.6-0.7-8.6-1.5
		c0-0.2-0.1-1-0.1-1.6c-0.1-0.7-0.2-2.1-0.3-3.1c-0.2-2.1-0.7-2.9-2.4-3.2c-1.9-0.3-5.6-3-5.6-4c0-0.1,0-0.4-0.1-0.5
		c0-0.1-0.3-1.4-0.6-2.7s-0.6-2.6-0.6-2.7c0-0.2,0.1-0.2,13.5,3.8c5.3,1.6,9.7,2.8,9.8,2.8c0.1-0.1,1.7-6.4,3.6-14
		c1.9-7.6,3.5-14.1,3.6-14.4c0.1-0.3,0.7,0.9,1.4,2.7c1.2,3,1.2,3.2,1.1,6.2c-0.2,3.6,0.2,4.5,1.3,3.5c0.5-0.5,0.6-1,0.5-2.9
		c-0.1-1.3-0.2-4.1-0.2-6.2l-0.1-3.9l1-1c0.9-1,1.1-1,2.2-0.8c0.7,0.2,1.5,0.7,2,1.2c0.7,0.9,0.7,0.9,0.3,0.1
		c-0.3-0.5-0.6-1.2-0.8-1.8c-0.4-1.3,0.6-2.5,2.5-2.8c1.7-0.3,2.9,0.3,4.2,1.9c1.2,1.5,0.9,2.8-1.3,5.5l-1.7,2.1l0.1,3.9
		c0.1,4.4,0.4,7,1,8.8c0.4,1.1,0.4,1.4-0.3,2.9c-0.5,1.2-0.7,2-0.6,2.8c0.3,1.7,2.2,4.3,5.1,6.7c3.3,2.8,4.5,4.9,3.8,6.8
		c-0.3,0.9-0.3,0.9-2.1,0.7c-1-0.1-1.9-0.3-2.1-0.5c-0.2-0.2-0.5-0.3-0.7-0.3c-0.8,0-0.7,1,0.3,2.6c1.7,2.7,1.4,4.4-1.1,5.6
		C165.2,77.2,164.1,77.3,162.5,76.9z"/>
	<path class="st1" d="M184.2,159.2c-0.1-0.1-1.3-0.2-2.6-0.3c-1.4-0.1-2.6-0.3-2.7-0.3c-0.1-0.1-1.3-0.2-2.7-0.3
		c-1.4-0.1-2.6-0.3-2.7-0.3c-0.1,0-1.1-0.2-2.2-0.3c-1.1-0.1-2.7-0.3-3.4-0.4c-2.9-0.3-4-0.4-7.5-0.8c-3.6-0.4-4.2-0.5-3.9-0.9
		c0.1-0.1,0.2-1.5,0.4-3.2c0.1-1.6,0.3-3.2,0.3-3.4c0-0.3,0.2-1.7,0.3-3.1s0.3-3,0.3-3.4c0.1-0.4,0.2-1.8,0.3-3
		c0.2-2.6,0.4-5.1,0.6-7c0.1-0.8,0.2-2.1,0.3-3c0.5-5.6,0.6-7,1-10c0.1-1,0.2-2.2,0.3-2.6c0-0.6-0.4-0.9-2.4-2
		c-3.2-1.7-9-4.7-13.6-7.2c-2-1-4.2-2.2-4.8-2.6c-1.2-0.7-1.9-1.5-4.3-5.4L134,98l-3.6-0.7l-3.6-0.7l-1.7-2.4
		c-1-1.3-4.6-6.3-8.1-11.1c-3.5-4.8-7.2-9.9-8.2-11.2c-1-1.4-1.8-2.6-1.8-2.8c0-0.3,4-11.4,4.2-11.7c0.4-0.5,3.4,2.3,4.6,4.2
		c0.8,1.3,3.1,3.2,4.6,3.9c0.6,0.3,1,0.3,1.5,0c0.6-0.3,0.9-0.2,2.1,0.8c0.8,0.6,1.6,1.5,2,2c0.7,1.1,1.9,3.7,1.9,4.3
		c0,0.8-0.8,1.3-2.5,1.5c-1.7,0.2-3.1,0.9-3.1,1.5c0,0.2,0.3,0.8,0.7,1.3c0.6,0.9,1.2,1.1,3.8,2c4.9,1.5,5.9,1.7,8.1,1.3
		c1.1-0.2,2.4-0.5,2.8-0.7c0.7-0.3,0.9-0.3,1.3,0.4c0.3,0.4,1.3,1.9,2.4,3.2c2.4,3.2,3.2,4.8,3.1,6c-0.1,0.7-0.1,0.8,0.2,0.5
		c0.2-0.3,0.2-1.7,0.1-3.7l-0.2-3.2l3.3-1.6c1.9-0.9,3.4-1.9,3.4-2.2c0.1-0.5,0.1-0.5-1.2,0c-0.7,0.3-2,0.7-2.9,1
		c-1.5,0.4-1.7,0.4-2.5-0.2c-2.1-1.6-0.3-4.6,2.8-4.8c0.7,0,1.9-0.3,2.8-0.6c0.9-0.3,2-0.5,2.5-0.4c1,0.1,1.9,1.3,2,2.7
		c0,0.5,0.3,1.5,0.6,2c0.8,1.5,3.2,3.8,4,3.8c0.4,0,0.9,0.1,1,0.1c0.2,0,0.5,0.1,0.7,0.1c0.2,0,0.9,0.9,1.6,2l1.3,2l1.9,0.2
		c1.1,0.1,2.8,0.2,4,0.2c1.1,0,3,0.3,4.2,0.6c1.2,0.3,2.2,0.6,2.2,0.6c0,0,0-0.5,0.1-1.1c0-0.6,0.3-1.7,0.5-2.3
		c0.3-0.7,0.5-1.6,0.5-2c0-0.8,0-0.8,1.4-0.6c1.8,0.2,3.7,0.9,5.8,2c0.9,0.5,1.7,0.9,1.7,0.9c0.1,0.1-1.1,4.3-1.7,6.3
		c-0.1,0.2,0.2,0.5,0.6,0.7c0.4,0.2,0.9,0.7,1.1,1.3l0.4,1l0.2-0.9c0.1-0.6,0-1.3-0.3-1.9c-0.3-0.6-0.5-1.8-0.5-3.1
		c0-2.2,0.3-2.8,1.4-2.5c1.1,0.3,3.3-0.8,4.3-2.2c0.8-1.1,0.9-1.6,0.9-3.1c0-1.4-0.1-1.9-0.6-2.3c-0.7-0.7-0.9-2.9-0.2-3.5
		c0.5-0.5-1.4-2.3-3.2-2.9c-1.1-0.4-1.6-0.8-2.4-2.1c-0.9-1.5-1.1-2-1.1-3.5c0-1,0.2-2.1,0.3-2.4c0.3-0.5,0.1-1-0.5-2.5l-0.8-1.9
		l0.6-1.8c0.5-1.5,0.8-1.9,1.9-2.5c1.2-0.7,1.3-0.8,1-1.5c-0.3-0.6-0.2-0.9,0.7-2c2.4-3,2.2-2.8,3.4-2.6c0.7,0.1,1.2,0.5,1.4,1
		c0.2,0.5,0.9,1.3,1.5,1.9c2.1,1.9,2.4,2.5,2.6,5.6c0.1,2.7,0.2,2.8,1.7,5.4c2,3.2,2.2,5,0.5,4.4c-0.6-0.2-0.7-0.2-0.6,0.7
		c0.1,0.5,0,1.5-0.3,2.2c-0.4,1.2-0.4,1.3,0.3,1.8c0.6,0.5,0.9,0.5,1.8,0.2c1.2-0.3,2.2-0.1,4.6,0.9c1,0.4,1.1,0.6,0.7,0.9
		c-0.2,0.2-1.1,0.5-1.8,0.6c-2.2,0.3-2.4,0.8-0.9,2.9c1.1,1.7,1.4,2.5,1.5,5c0.1,1.3,0.5,0.1,0.8-2c0.4-3.2,0.8-4.2,2-4.8l1.1-0.5
		l2.1,2.3c1.5,1.6,2.2,2.7,2.4,3.6c0.5,2,0.4,3.1-0.3,3.8c-0.3,0.3-0.6,1-0.6,1.5c0,0.9,0.6,2.9,0.9,3.2c0.1,0.1,0.7,0.9,1.2,1.8
		c0.6,0.9,1.1,1.6,1.2,1.6c0.5,0,1.7-1.1,1.9-1.7c0.1-0.4,0.4-1.5,0.5-2.5c0.1-1,0.4-2.3,0.6-2.8c0.2-0.5,0.7-1.9,1.1-3.1
		c0.3-1.2,1.1-2.8,1.6-3.6c1.1-1.6,1.2-2.4,0.3-3.3c-0.7-0.8-1.6-4.5-1.3-5.6c0.4-1.3,1.1-1.7,2.8-1.7c1.3,0,2.1,0.2,3.4,0.9
		c1,0.5,2,0.9,2.4,0.9c0.3,0,1.1,0.5,1.6,1.1c0.6,0.6,1.6,1.4,2.4,1.8c1.3,0.7,2.5,1.7,2.5,2.3c0,0.2-0.2,0.4-0.5,0.7
		c-0.5,0.3-0.5,0.5,0.1,1.3c0.4,0.5,0.7,1.4,0.9,2c0.2,1,0.1,1.2-0.7,1.5c-0.5,0.2-1.1,0.6-1.3,1c-0.2,0.4-0.6,0.6-1,0.6
		c-0.8,0-0.8,0.6,0.2,1.7c0.4,0.5,0.9,1.4,1,1.9c0.1,0.7,0.5,1.3,1.2,1.7c2.2,1.5,2.2,4.7,0,8.4c-2.6,4.5-2.8,4.7-4.2,4.5
		c-0.7-0.1-1.6-0.4-2-0.7l-0.8-0.5l0.5,1.2c0.5,1.3,0.2,1.9-0.9,1.5c-1.2-0.4-1.6-0.3-2.1,0.1c-0.4,0.4-0.7,0.4-1.6,0
		c-0.6-0.2-1.3-0.7-1.5-1.1c-0.4-0.6-0.7-0.6-1.7-0.5c-0.7,0.1-1.5,0.3-1.8,0.5c-0.5,0.3-0.4,0.4,0.6,1.4c1.1,1,1.1,1.2,0.9,2.4
		c-0.2,0.9-0.7,1.9-1.9,3.3c-0.9,1.1-1.8,2.3-1.9,2.8c-0.1,0.4-0.4,0.8-0.6,0.8c-0.2,0,0,0.3,0.5,0.7c0.8,0.6,0.9,0.9,0.8,2
		c-0.1,0.7-0.3,1.6-0.6,2c-0.3,0.4-0.8,1.2-1.1,1.7c-0.3,0.5-1.2,2-2,3.4c-1.6,2.7-2.1,3.1-5.1,3.1c-2.2,0-2.9,0.5-3,2.2
		c-0.1,1.1-0.1,1.1-1.5,1.1c-0.8,0-1.8-0.1-2.3-0.2c-1.3-0.3-1.3,0.2-0.2,1c0.6,0.4,1.1,0.7,1.1,0.8c0.3,0.2,0.4,2.7,0.1,3.7
		c-0.4,1.3-1.6,1.9-3.7,1.9c-2.5,0.1-2.3,0-1.8,0.8c0.4,0.7,0.4,0.8-0.7,1.8c-1.6,1.5-3.4,4-4.3,5.6c-0.4,0.8-1,1.7-1.4,2
		c-0.8,0.7-1.6,2.1-1.6,2.9c0,0.3-0.7,2.1-1.6,4c-1.4,2.9-1.6,3.7-1.6,5.1l0,1.7h-1.3C184.9,159.4,184.3,159.3,184.2,159.2z"/>
	<path class="st1" d="M247.3,142c-1.7-1-1.6-4.1,0.1-6c0.7-0.8,1.5-0.7,2.5,0.2c1,0.9,0.5,4.5-0.8,5.7
		C248.3,142.6,248.3,142.6,247.3,142z"/>
	<path class="st1" d="M231.1,138.5c-0.7-1.4,0.3-4.4,1.8-5.5c1.2-0.8,1.6-0.9,4-0.9c1.5,0,1.6,0.1,2,1c0.4,0.8,0.3,1.1-0.6,2.5
		c-1.3,2-3.2,3.2-5.2,3.4C231.7,139.1,231.4,139,231.1,138.5z"/>
	<path class="st1" d="M224.1,131.6c-0.4-0.1-0.5-0.4-0.5-1.6c0-0.8-0.2-1.6-0.4-1.9c-0.2-0.2-1.2-0.4-2.1-0.4
		c-3.7-0.1-4.3-0.9-2.2-3.1c1.2-1.3,1.4-1.8,1.3-3.6c-0.2-6.1,0-8.1,1.2-12.9c0.4-1.5,0.5-1.6,1.5-1.8c1-0.2,1.2-0.1,1.8,0.7
		c0.4,0.5,1,1.5,1.3,2.2c0.5,1.1,0.7,1.3,1.5,1.3c0.6,0,1.8,0.6,3.6,1.9c1.5,1,3.5,2.5,4.6,3.2c1.1,0.7,1.9,1.5,2,1.8
		c0,0.3,0.4,1,0.8,1.7c0.4,0.7,0.8,1.5,0.8,1.8c0,0.5,0.2,0.5,1.7,0.4c1.5-0.2,1.8-0.1,2.8,0.7c1,0.8,1.1,1,1,2
		c-0.2,1.6-0.4,2-1.7,2.7c-1.2,0.7-1.2,0.7-2.6,0.1c-0.9-0.4-1.8-0.6-2.6-0.5c-0.9,0.1-1.3,0-1.8-0.6c-0.4-0.4-0.6-1-0.6-1.3
		c0.1-0.8-2.7-2.3-3.3-1.7c-0.3,0.2-0.5,0.7-0.5,1.1c0,1.1-0.6,2.4-1.5,3.3c-0.5,0.5-1.2,1.3-1.5,1.8c-1,1.3-2.2,2.6-2.5,2.6
		C225.4,131.7,224.6,131.7,224.1,131.6z"/>
	<path class="st1" d="M183.1,82.4c-1-0.3-2.4-1.2-3.7-2.5c-0.5-0.5-1.1-0.9-1.2-0.9c-0.6,0-2.1-1.3-2.1-1.9c0-0.8,5-7.5,5.5-7.5
		c0.8,0,3.7,3,4.5,4.7c1.3,2.6,2.2,5,2.2,6c0,0.6-0.3,1-1.2,1.6C185.8,82.8,184.8,82.9,183.1,82.4z"/>
	<path class="st1" d="M299.1,129.5c-0.1-0.1-2-0.2-4.4-0.3c-3.4-0.1-4.4-0.3-5-0.7c-0.4-0.3-1.1-0.9-1.6-1.4
		c-0.8-0.7-1.2-0.8-2.5-0.8c-1.7,0.1-2.7-0.2-6-1.7c-2-0.9-2.3-1.2-2.6-2.3c-0.4-1.1-0.3-1.3,0.1-1.5c0.6-0.3,0.7-0.9,0.2-0.9
		c-0.2,0-1-0.5-1.9-1.1c-0.9-0.6-2-1.2-2.5-1.3c-0.6-0.1-1.1-0.5-1.4-1.1c-0.7-1.3-2.3-2.3-4-2.5c-1.3-0.1-1.7-0.1-2.3,0.5
		c-0.5,0.5-1.1,0.7-2.1,0.7c-1.2,0-1.6,0.2-2.7,1.2l-1.3,1.2h-2.6c-4.3,0-5.3-0.8-5.7-4.6c-0.1-1.3-0.1-1.6,0.8-2.4
		c0.7-0.7,1-1.2,1-2.1c0-0.8,0.2-1.3,0.5-1.5c0.3-0.2,2.2-0.3,4.3-0.3c3.4,0,3.8-0.1,4.7-0.8c1.4-1,2.9-1.7,3.7-1.7
		c0.6,0,0.6-0.1,0.5-0.7c-0.2-0.8-0.4-1.6-0.5-1.8c0-0.1-0.6-0.6-1.3-1c-1.2-0.8-1.3-0.9-1.1-2.1c0.1-0.7,0.4-1.6,0.6-2.1
		c0.3-0.5,1.2-2.3,2.1-4.1l1.6-3.2l-0.6-2.2c-0.6-2.1-2.4-5-3.9-6.3c-0.3-0.2-0.9-1-1.3-1.6c-0.4-0.7-1.4-1.5-2.3-2
		c-1.2-0.7-1.6-1.1-1.8-1.9c-0.2-1-0.4-1.1-1.2-1c-0.5,0.1-1.1,0.3-1.4,0.5c-0.3,0.2-1.1,0.7-1.8,1.1c-1.1,0.6-1.4,0.6-1.7,0.2
		c-0.5-0.6-0.1-1.7,1-2.7c1-0.8,1-0.9,0.4-1.3c-0.8-0.6-1.2-0.6-2.4,0c-1.2,0.6-1.8,0.4-1.8-0.7c0-0.6,0.2-1,0.6-1.2
		c0.6-0.3,0.5-0.4-0.9-1.7c-2.5-2.5-4-3.6-4.4-3.5c-0.2,0.1-0.4,0.6-0.4,1.2v1.1l-3.2,0.1c-1.8,0-4.1,0.1-5.3,0c-1.7,0-2.1,0-2,0.5
		c0,0.4-0.3,0.5-2.6,0.5c-1.5,0-4.1-0.1-5.9-0.3c-2-0.1-3.7-0.1-4.4,0.1c-1.4,0.4-2.4-0.3-3-1.8c-0.3-0.9-0.5-1-1.3-1
		c-3.7,0.3-3.9,0.3-4.8-0.4c-2.1-1.5-3.8-4-3.8-5.4c0-0.5,0.3-0.6,1.4-0.8c0.8-0.1,2-0.2,2.7-0.2c1.1,0,1.2-0.1,0.8-0.4
		c-0.7-0.6-2.4-1.1-3.9-1.1c-1,0-1.4-0.1-1.5-0.5c-0.6-1.4-1-4-0.9-5.3c0.4-6.4,0.5-7.2,1.9-11.1c1.9-5.7,3.4-8.3,5.2-9.4
		c2.8-1.7,7.3-1.2,7.9,0.8c0.2,0.8,0.1,1.1-0.8,2.1c-0.6,0.7-1.2,1.7-1.3,2.4c-0.1,0.7-0.4,1.5-0.7,1.9c-0.6,0.9-1.4,4.1-1.1,4.5
		c0.1,0.2,0.2,1.3,0.3,2.6c0.1,2.6,0.2,2.9,1.1,2.9c0.4,0,0.7-0.3,0.8-0.9c0.1-0.5,0.4-1.1,0.7-1.4c0.4-0.5,0.4-0.7,0.1-1.1
		c-0.8-1.1-1.1-2.1-1.1-3.6c0-1.2,0.1-1.6,0.6-2c0.4-0.3,0.7-0.8,0.8-1.1c0.1-0.3,0.4-0.5,0.5-0.5c0.2,0,0.3-0.3,0.3-0.6
		c0-1.1,2.4-4.5,3.7-5.2c1.4-0.8,4.4-1.3,5.3-1c0.6,0.2,1.1,1,3,4.5c1.2,2.2,2.1,4.6,1.9,5.3c-0.2,0.9,0.9,2.4,1.8,2.4
		c0.4,0,1.2-0.2,1.9-0.3c1-0.3,1.2-0.4,1-0.9c-0.3-1.1,1.6-2.6,3.8-3.1c1.8-0.4,2-0.4,3,0.3c0.6,0.4,1.4,0.7,1.9,0.7
		c1,0,2.4,1.1,2.7,2.2c0.3,1.1,1.1,1.9,1.7,1.9c0.4,0,0.6,0.3,0.8,1.2c0.1,0.7,0.3,1.2,0.5,1.2c0.1,0,1.1,0.8,2,1.7
		c1.4,1.4,1.8,1.6,1.9,1.2c0.1-0.3,0.4-1,0.6-1.6c0.5-1.1,0.8-1.1,3.5-0.2c1.1,0.4,1.4,0.7,2,2c0.4,0.9,1,1.8,1.5,2.1
		c0.5,0.3,1,0.8,1.2,1.2c0.7,1.2,1.4,1.5,2.3,0.7c1-0.8,1.8-0.6,3.6,0.7c1.2,0.8,1.3,1.1,1.1,1.8c-0.5,2.2-0.6,2.6-0.1,2.5
		c0.2,0,0.7-0.5,1-0.9c0.8-1.2,1.7-1.1,3.3,0.5c1.4,1.5,2.1,2.6,2.2,3.5c0.1,1.7,0.2,1.9,1.2,2.4c0.6,0.3,1.3,0.9,1.6,1.5l0.5,0.9
		l-1.4,0.8c-1.2,0.7-1.6,0.8-2.2,0.5c-1-0.4-1.2-0.2-0.6,0.8c0.5,0.7,0.5,2-0.1,3.3c-0.3,0.7,0.8,1.6,2.3,2.1
		c0.7,0.2,1.7,0.7,2.4,1.2c0.7,0.5,1.7,0.9,2.3,0.9c0.6,0,1.4,0.2,1.9,0.4s1.6,0.3,2.6,0.2l1.8-0.1l1.7,1.7c1.5,1.5,1.8,1.8,3,1.8
		c0.7,0,1.4,0.1,1.7,0.1c0.2,0,0.5,0.5,0.6,1.1c0.1,0.6,0.3,1.1,0.4,1.2c0.1,0.1,1.2-0.1,2.4-0.5l2.2-0.8l1.2,0.7
		c1.1,0.6,1.2,0.8,1.3,2.3c0.1,2-0.1,2.8-0.9,3.7c-0.6,0.7-0.6,0.8-0.1,1.3c0.4,0.5,0.5,0.7,0.2,1.3c-0.2,0.4-0.3,1.3-0.2,1.9
		c0.2,1.4-0.8,3-2,3c-0.7,0-0.7,0.1-0.6,0.7c0.3,1.1,1.3,3,1.7,3.2c0.7,0.4,0.3,1.1-1,1.7c-1.3,0.6-1.3,0.6-2.4,0.1
		c-0.6-0.3-1.8-0.8-2.6-1c-1.3-0.3-1.7-0.6-2.6-2c-1.2-1.8-3.4-3.9-4-3.9c-0.2,0-0.6-0.2-0.9-0.4c-1.3-1.2-3.4-2-3.4-1.2
		c0,0.1-0.4,0.4-0.8,0.6l-0.8,0.4l0.9,0.9c1,1.1,1,2.5,0,3c-0.5,0.2-0.6,0.5-0.4,0.9c0.1,0.3,0.3,0.5,0.3,0.4c0-0.4,2.3,0.7,2.7,1.3
		c0.2,0.3,1,1.2,1.7,2c1.2,1.4,1.6,1.6,4.9,2.4c1,0.3,1.3,0.5,1.5,1.1c0.1,0.4,0.5,0.9,0.8,1.1c0.3,0.2,1,0.9,1.4,1.6
		c0.4,0.7,1.8,2.2,3,3.5l2.2,2.2l-0.1,4.4c0,2.4-0.2,4.4-0.3,4.5c-0.3,0.2-6-1.6-9-2.9c-1.5-0.6-3.1-1.5-3.6-2
		c-0.9-0.8-1.8-0.9-3.6-0.7c-0.5,0.1-0.2,0.6,0.6,0.9c0.5,0.2,1.1,0.8,1.4,1.4c0.5,0.9,1,1.2,3,2c1.3,0.5,3.9,1.9,5.7,3.1l3.4,2.2
		l-0.1,1.9l-0.1,1.9l-1.8,0C300,129.6,299.2,129.5,299.1,129.5z"/>
	<path class="st1" d="M253.7,128.3c-1.2-0.8-1.5-1.6-1-2.3c0.5-0.6,1.1-0.6,2.2,0.2c1,0.7,1.2,1.8,0.5,2.4
		C254.9,129.2,254.9,129.1,253.7,128.3z"/>
	<path class="st1" d="M257.1,124.8c-0.6-0.1-0.7-0.3-0.6-1c0.1-0.6,0.3-0.9,0.9-0.9c1.1-0.1,2.3,0.8,2,1.6
		C259.1,125,258.6,125.1,257.1,124.8z"/>
	<path class="st1" d="M252,90c-2.1-2.1-1.4-8.6,1.1-10.2c1.1-0.7,2.8-0.3,3.9,0.9c0.9,1,0.9,1.1,0.9,4.5c0,3.9-0.1,4.1-2.5,5.2
		C253.8,91.1,253,91.1,252,90z"/>
	<path class="st1" d="M260.6,84.3c-0.9-0.4-1.7-1.6-1.4-2.1c0.4-0.6,2.9-0.4,3.4,0.2c0.6,0.8,0.5,1.3-0.5,1.8
		C261.5,84.5,261,84.5,260.6,84.3z"/>
	<path class="st1" d="M241.9,76c-0.3-0.3-0.3-0.5,0.5-1.4c0.5-0.5,0.8-1.5,1-2.5c0.2-1.5,0.9-3.1,1.4-3.1c0.5,0,0.6,1,0.3,1.7
		c-0.2,0.4-0.3,1.1-0.3,1.7C244.9,74.1,242.7,76.9,241.9,76z"/>
	<path class="st1" d="M178.1,53.7c-0.8-0.7-1.5-1.5-1.5-1.8c-0.3-3.4-0.8-4.2-3.6-6.2c-0.5-0.4-1.4-1.5-2-2.5c-1-1.8-1-1.9-0.5-3.3
		c0.2-0.8,0.8-1.7,1.2-2c0.8-0.6,0.8-0.6,2.4,0.7c1.6,1.2,1.7,1.2,2.2,0.7c0.3-0.3,0.7-1.1,0.8-1.7c0.3-1,0.2-1.3-0.3-1.8
		c-1.5-1.6-1.9-2.6-1.5-4.2c0.4-1.7,1.3-3.2,2-3.2c0.3,0,1.2,0.4,2.1,0.9c1.4,0.8,1.7,0.9,2,0.5c0.8-0.9,4.2-1.6,4.9-1
		c0.2,0.2,0.4,1,0.4,2c0,1.3-0.1,1.7-0.5,1.9c-0.5,0.2-0.5,0.2,0,0.6c0.8,0.6,0.7,0.9-0.9,2.7c-0.8,0.9-1.4,1.7-1.4,1.9
		c0,0.2,0.4,0.5,0.9,0.6c0.7,0.3,0.9,0.5,0.9,1.2c0,0.5,0.2,1.2,0.5,1.6c0.9,1.6,1.2,2.4,1.3,4.6c0.1,2,0.1,2.4-0.6,3.5
		c-0.8,1.3-2.5,2.6-3.5,2.6c-0.3,0-0.4,0.1-0.4,0.3c0.3,0.5-1.3,2.1-2.5,2.4C179.6,54.9,179.5,54.9,178.1,53.7z"/>
	<path class="st1" d="M191,47.8c-0.7-0.5-0.8-0.9-0.8-2c0-0.7-0.1-1.7-0.3-2.2c-0.7-1.9-0.2-9.1,0.9-11.6c0.4-0.8,0.7-2,0.8-2.7
		c0.3-1.7,1.2-2.2,4.7-2.7c0.9-0.1,1.6,0,2.6,0.5c0.7,0.4,1.6,0.7,1.9,0.7c0.9,0,2.7,0.8,4,1.7c1,0.8,1,0.8,0.5,1.8
		c-0.3,0.5-0.7,1.2-1,1.5c-0.2,0.3-0.5,0.9-0.6,1.4c-0.1,0.5-0.6,1.6-1.2,2.5c-0.6,0.9-1.2,2.4-1.4,3.4c-0.2,1-0.5,1.9-0.7,1.9
		c-0.2,0.1-1.2,0.2-2.3,0.3s-2.1,0.3-2.2,0.4c-0.2,0.2-0.5,2.4-0.6,4.4c0,0.5-1.7,1.3-2.6,1.3C192.1,48.4,191.4,48.1,191,47.8z"/>
</g>
<path class="st1" d="M236.1,37.4c-1.4-2.4-3.5-6.9-3.4-7.3c0.3-0.7,6.6-0.6,7.9,0.1c1.8,1,4,3.3,5.1,5.3c0.6,1.2-0.3,1.7-2.6,1.6
	c-1.5-0.1-2.3,0.1-3.2,0.6C238,38.8,236.9,38.7,236.1,37.4z"/>
<path id="ontario" class="st2" d="M249,308.1c0.3-0.6,0.8-0.9,1.6-1.1c0.7-0.1,1.4-0.3,1.6-0.5c0.6-0.4,0.9-2.6,0.4-2.9
	c-0.3-0.2-0.3-0.4-0.1-0.8c0.2-0.3,0.4-1.1,0.5-1.7c0.1-0.6,0.5-1.3,0.8-1.6c1.1-0.8,2.1-2.6,2-3.7c-0.1-0.6-0.1-2.2-0.1-3.6
	c0-2.4,0-2.7,1.1-4.5l1.1-2l-0.6-1.2c-0.3-0.7-0.9-1.5-1.2-1.8c-0.7-0.6-0.9-1.4-0.4-1.4c0.1,0,1.1,0.8,2.1,1.9
	c1.7,1.7,3.4,2.8,5,3.2c1.7,0.5,2.7-2.4,1.4-4.2c-0.8-1.2-4.2-4.9-5.1-5.5c-0.3-0.2-1.5-0.5-2.7-0.7c-1.1-0.1-2.8-0.5-3.8-0.7
	c-1.2-0.4-3-0.5-6.3-0.5c-4.3,0-4.6,0-5.1-0.6c-0.2-0.4-1.2-1-2.1-1.5c-1.3-0.7-1.7-1-1.7-1.7c0-0.5-0.4-1.3-0.9-1.8
	c-0.8-0.8-0.8-1-0.4-1.1c0.7-0.3,0.7-0.9-0.1-2c-0.4-0.5-0.9-1.5-1.2-2.3c-0.5-1.2-0.8-1.4-1.8-1.6c-1.2-0.2-4.5-1.8-5.3-2.5
	c-0.2-0.2-0.5-0.9-0.5-1.6c0-0.7-0.2-1.6-0.3-2.1l-0.2-0.9l-2.5,0.2c-2.3,0.2-2.7,0.1-4.3-0.7l-1.8-0.9l-1.3,0.8
	c-1.2,0.7-1.2,0.9-0.8,1.3c0.4,0.4,0.3,0.6-1.6,1.9c-1.2,0.8-2.6,1.9-3.2,2.6c-1.3,1.4-1.4,1.4-5.9,0.6c-1.3-0.2-3.3-0.4-4.6-0.4
	c-2.1-0.1-4.2-0.8-4.2-1.5c0-0.1-0.4-0.2-0.8-0.2c-0.5,0-1.3-0.4-2-1.1c-1.1-1.1-1.2-1.1-4-1.1c-2.1,0-3-0.1-3.3-0.4
	c-0.2-0.2-1-0.5-1.7-0.7c-1.7-0.3-1.9-0.5-2.1-2.7c-0.2-1.8-0.3-2-1.2-2.4c-1-0.5-1-0.6-1-2.3c0-2,0.4-10.4,0.6-13.4
	c0.1-1,0.2-4.1,0.3-6.8c0.3-6.2-0.3-5.3,7.2-13c1.6-1.6,3.8-4,4.9-5.3c1.1-1.3,2.2-2.5,2.3-2.7c0.2-0.2,2-2.3,4.1-4.7
	c2.1-2.4,4.4-5.2,5.3-6.1c4.2-4.7,6.1-6.8,6.7-7.5l0.6-0.8l1,0.6c1.3,0.7,3.4,2.7,3.4,3.2c0,0.2,0.5,0.8,1,1.3
	c0.8,0.7,1.5,1.1,2.9,1.4c1.3,0.2,2.2,0.6,2.8,1.2c0.9,0.8,1.7,1.1,3.1,1.2c0.4,0,1.4,0.7,2.3,1.5l1.7,1.5l5.9,0.2
	c5.1,0.2,6,0.3,7.1,0.9l1.3,0.7l-0.2,2.7c-0.1,1.5-0.3,2.8-0.5,3c-0.1,0.2,0,0.7,0.3,1.2c0.3,0.5,0.7,1.6,0.8,2.4
	c0.3,2.5,0.4,2.8,0.7,3.3c0.2,0.3,0.2,1.2,0.2,2c-0.1,1.2,0.1,1.7,0.8,2.9c1.2,1.9,5,6.4,5.3,6.4c0.7,0,2.7,2.6,3.3,4.2l0.6,1.8
	l1.9-0.1l1.9-0.1l0.2,1.6c0.3,2.5,0.4,3.7,0.6,5.5c0.1,0.9,0.2,2.1,0.3,2.5c0.1,0.4,0.2,1.6,0.3,2.7c0.1,1,0.2,2.2,0.3,2.7
	c0.2,1,0.4,3.5,0.6,5.5c0.1,0.9,0.2,2.1,0.3,2.7c0.5,3.8,0.8,6.3,0.9,7.9c0.1,1,0.6,2.8,1.1,3.9c0.8,1.8,1.2,2.3,2.8,3.4
	c2,1.4,4.8,2.4,7.7,2.7c1.3,0.1,2.3,0.5,3.3,1.1c0.8,0.5,1.7,0.9,2,0.9c0.3,0,1,0.5,1.5,1.2l0.9,1.2l2.7-0.1c2.3-0.1,3-0.3,4.7-1.2
	c2-1.1,3.6-1.6,3.6-1.1c0,0.5,0.2,1.3,0.4,1.9c0.2,0.5,0,0.9-1,1.7c-2,1.7-3.6,3.4-5.9,6.2c-1.2,1.5-2.3,2.7-2.5,2.7
	c-0.5,0-1.8,1.2-1.6,1.5c0.4,0.6-2.1,1.5-4.2,1.6c-3.7,0.1-9.1,2.3-10.2,4.2c-1.1,1.9-1.1,2.3,0.1,2.8c0.6,0.2,1.3,0.4,1.7,0.3
	c0.5-0.1,0.7,0.1,1.1,0.9c0.6,1.3,0.4,1.5-1.7,1.5c-1.3,0-4.7,1.3-5.6,2.1c-0.4,0.4-0.4,0.5,0.3,1l0.8,0.6l-0.9,0.2
	c-0.5,0.1-1.5,0.1-2.2-0.1c-3-0.7-3.7-0.4-7.4,3.4c-2,2.1-2.5,2.5-3.4,2.5c-0.6,0-1.5,0.1-2.1,0.1l-1,0.1L249,308.1z"/>
<path id="prince-edward" class="st3" d="M358.8,252.6c-0.1-0.1-1.3-0.2-2.8-0.3c-1.4-0.1-3.4-0.3-4.3-0.6c-2.1-0.6-2.5-0.7-3.1-0.8
	c-1.3-0.1-1.4-0.5-0.6-2.2c0.4-0.9,0.9-1.6,1.2-1.6c0.2,0,1,0.6,1.8,1.4c1.1,1.1,1.5,1.3,1.8,0.9c0.2-0.2,1-0.4,1.9-0.4
	c0.8,0,1.8-0.1,2.1-0.3c1-0.5,3.8-1.2,3.9-1c0.1,0.1-0.1,0.6-0.3,1.1c-0.2,0.5-0.5,1.5-0.5,2.2C359.7,252.3,359.2,253,358.8,252.6z"
	/>
<g id="quebec">
	<path class="st4" d="M295.7,275.7c-0.3-0.5-0.6-1.4-0.6-2c-0.1-1-0.2-1.1-1.4-1.2c-1.3-0.1-3,0.6-4.8,1.9c-0.6,0.4-1.4,0.6-3.2,0.6
		c-2.3,0-2.3,0-3.1-1.1c-0.4-0.6-1-1.1-1.3-1.1s-1.3-0.4-2.2-1c-1.1-0.7-2.1-1-3.3-1.1c-2.6-0.2-5.6-1.2-7.4-2.4
		c-1.3-0.9-1.8-1.5-2.6-3.2c-0.6-1.3-1-2.9-1.2-4.1c-0.1-1.1-0.3-2.5-0.3-3c-0.1-0.5-0.3-2.3-0.5-3.9s-0.4-3.5-0.5-4.1
		c-0.1-0.6-0.2-1.7-0.3-2.5c-0.1-0.8-0.6-5.1-1.1-9.5c-0.5-4.5-1-8.5-1.1-8.9c-0.1-0.7-0.1-0.8,0.8-1c0.9-0.2,1-0.3,0.8-1.2
		c-0.2-0.8,0-1.2,0.7-2.3c0.5-0.7,0.9-1.7,0.9-2.1c0-0.4-0.6-2-1.3-3.4s-1.4-3.2-1.6-3.9s-0.6-1.6-0.9-2c-0.4-0.5-0.5-1.2-0.5-2.3
		c0.1-1.6-0.7-3.4-1.9-4c-0.4-0.2-0.6-0.7-0.6-1.2c0-0.5-0.3-1.2-0.6-1.6s-0.6-0.9-0.6-1.1c0-0.5,1.5-1.8,3.3-2.9
		c0.9-0.5,2-1.5,2.5-2.2c0.5-0.7,1.6-1.9,2.4-2.7c0.9-1,1.8-2.5,2.5-4.3c1-2.5,1.1-3,1.1-5.4c0-1.9-0.3-3.3-0.9-5.2
		c-0.5-1.4-0.9-2.9-1-3.4c-0.3-1.4-3.1-4.4-5.1-5.5c-2.4-1.3-4.3-3.1-4.4-4.4c0-0.5,0.2-1.5,0.5-2.1c0.3-0.7,0.6-1.4,0.6-1.7
		c0-0.3,0.4-0.7,0.7-1c0.5-0.4,0.6-0.9,0.6-2c0-1.1,0.2-1.7,0.6-2.1c0.6-0.6,0.6-0.7,0.2-1.9c-0.2-0.7-0.5-1.6-0.6-2.1
		c-0.2-1-1-2.6-1.9-3.8c-0.6-0.8-0.7-1.3-0.7-4.5c0-2.6-0.1-3.7-0.4-4.1c-0.2-0.3-0.8-1.5-1.3-2.7l-0.9-2.1l0.8-1.6
		c0.8-1.6,0.9-1.6,2.3-1.8c2.3-0.3,4.3-0.2,5.7,0.2c1.8,0.6,4.3,0.9,5.3,0.5c0.5-0.2,1.4-0.9,2.1-1.6c0.7-0.7,1.4-1.2,1.6-1.2
		c0.5,0,6.6,3.2,8.6,4.5c1.5,1,1.9,1.4,1.8,2c0,0.4,0.2,1.1,0.5,1.6c0.5,0.7,0.9,0.8,3.7,1.2c1.8,0.2,3.9,0.6,4.7,0.9l1.5,0.5
		l-0.2,1.7c-0.2,1.7,0,2.7,1.5,6.8c0.2,0.5,0.3,1.3,0.3,1.8c0,0.5,0.3,1.2,0.8,1.6c0.4,0.4,1.1,1.4,1.4,2.2l0.6,1.4l1.5-0.2
		c1.5-0.2,1.6-0.1,3.2,1.2c0.9,0.8,2,1.5,2.5,1.6s0.9,0.3,0.9,0.5c0,0.6,0.7,0.2,2-1c1-1,1.4-1.7,1.6-2.6c0.1-0.9,0.4-1.4,0.9-1.6
		c0.4-0.2,0.9-0.8,1.1-1.7c0.5-1.5,0.4-4.8-0.1-5.7c-0.2-0.3-0.3-0.8-0.3-0.9c0-0.2,0.2-1.1,0.4-2c0.3-1.5,1-2.7,1.6-2.3
		c0.1,0.1,0.3,0.7,0.4,1.3c0.3,1.5,1.6,3.8,2.2,3.8c0.4,0,1.3,3.1,1.1,3.9c-0.2,0.9,0.1,1,1.8,0.8l1.8-0.1l0,2c0,1.1-0.2,2.5-0.4,3
		c-0.2,0.7-0.2,1.3,0,1.6c0.4,0.7,2,1.7,3.2,2c1,0.3,1.1,0.5,1.3,4.2c0.1,1.6,0.4,3.7,0.6,4.5c0.2,0.9,0.5,2.1,0.6,2.7
		c0.1,0.8,0.5,1.3,1.1,1.8c0.9,0.7,2.5,3.4,2.5,4.4c0,0.3,0.3,0.7,0.6,1c0.3,0.3,0.8,1.1,1.1,1.7c0.5,1.2,0.5,1.3-0.1,2.7l-0.7,1.5
		l-1.6-0.2c-0.9-0.1-2.1-0.3-2.6-0.4c-0.8-0.2-1-0.1-1.7,0.9c-0.8,1.2-1.4,1.4-2.2,0.6c-0.3-0.3-1.4-0.7-2.5-0.9
		c-2.1-0.4-2.3-0.3-2.6,1.2c-0.1,0.5-0.5,1-1,1.2c-0.6,0.3-0.8,0.6-0.8,1.4c0,0.7-0.3,1.3-1,2.1c-0.8,0.9-0.9,1.2-0.8,2.3
		c0.1,0.7,0.4,1.6,0.6,2.1c0.7,1.4,2.6,3.2,3.9,3.9c1.4,0.7,1.6,1.4,1,3.2c-0.3,1-0.3,1.1,0.5,1.8c0.9,0.8,2,0.9,3.8,0.3
		c0.6-0.2,0.7-0.1,0.9,1.4c0.1,1.1,0.5,1.9,1,2.4c0.7,0.7,0.9,0.8,2.5,0.6c1.4-0.2,1.8-0.1,2.3,0.3c0.3,0.3,0.9,0.6,1.1,0.7
		c1.5,0.3,4.6,0.3,5,0.1c0.2-0.1,0.5-0.9,0.5-1.6c0.2-1.8,0.4-3.9,0.4-4c0,0,0.6,0.2,1.3,0.6c1,0.5,1.6,0.6,2.6,0.5
		c1.4-0.2,6.4-1.9,11.6-3.9c8-3.2,13-5,14.8-5.4c1.1-0.3,2.2-0.7,2.4-0.9c0.3-0.2,0.5-0.2,0.7-0.1c0.7,0.9,2.2,2.9,2.2,3
		c0,0.1-0.9,0.8-2,1.7c-2.9,2.2-4.6,4.1-4.8,5.4c-0.1,0.6-0.8,2.4-1.6,3.9c-0.8,1.5-1.5,3.2-1.7,3.6c-0.4,1-5.4,3.7-8.6,4.6
		c-1.2,0.4-3.9,1.1-5.9,1.7c-12.1,3.5-17.9,5.7-19,7.2c-0.3,0.4-0.7,1.5-0.9,2.3c-0.2,0.8-0.6,2.5-0.9,3.6c-0.6,1.8-0.7,2.1-1.4,2.1
		c-1.5,0-4.5,3.5-5.6,6.4c-0.3,0.9-1,2.3-1.6,3.1c-0.5,0.9-1.1,2.1-1.1,2.7c-0.4,2.6-5.1,10.4-7.6,12.4c-3.5,2.8-8.3,7.9-7.9,8.4
		c0.1,0.1,1.3-1.2,2.8-2.8c1.5-1.6,3.6-3.6,4.7-4.5c1.9-1.5,4.1-3.7,5.5-5.8c1.3-1.9,3.5-6.4,3.5-7c0-0.4,0.2-1,0.4-1.3
		c0.6-1.1,3.4-4.6,4.6-5.7c0.6-0.5,1.8-1.6,2.6-2.4c0.9-0.8,2.4-1.9,3.4-2.6c1-0.6,2.9-1.9,4.2-2.8c1.6-1.1,3-1.8,4.4-2.1
		c1.9-0.5,2.2-0.5,3.9,0.1c1.5,0.5,1.9,0.8,2.4,1.6c1.2,2.4,1,4-0.7,6.1c-1.7,2.1-2.4,2.5-4.2,2.7c-3.6,0.4-6.6,1.2-7.5,2.1
		c-1.3,1.2-2.3,1.5-4.8,1.6c-3,0.1-3.1,0.3-2.9,3.5l0.2,2.6l-1.2,0.2c-0.7,0.1-1.6,0.1-2,0c-0.6-0.1-1,0-1.3,0.6
		c-0.6,0.9-1.9,5.2-2.2,7.1c-0.1,0.8-0.3,2.3-0.5,3.4c-0.2,1.1-0.4,2.6-0.4,3.4c-0.2,2.4-1.2,4.5-2.4,5.3c-0.6,0.4-1.5,1.3-1.8,1.8
		c-0.4,0.6-1,1.1-1.4,1.2c-0.4,0.1-2.9,0.6-5.7,1.2c-2.8,0.6-5.8,1.1-6.7,1.1C296.4,276.5,296.2,276.4,295.7,275.7z"/>
	<path class="st4" d="M346.7,227.8c-0.4-0.1-1.1-0.4-1.6-0.7c-0.4-0.3-1.6-0.7-2.6-0.9c-2.2-0.5-2.7-1.3-1.3-2.4
		c0.7-0.6,1.3-0.7,2.9-0.8c4.3-0.1,5.8,0.1,8.7,1c2.9,1,2.9,1,2.9,2c0,1.2-0.1,1.2-3.6,1.5C348.4,228,347.5,228,346.7,227.8z"/>
</g>
<path id="saskatchewan" class="st2" d="M146.1,248.6c-0.1-0.1-1.3-0.2-2.6-0.3c-1.4-0.1-2.9-0.3-3.3-0.3c-0.4-0.1-1.7-0.2-2.8-0.3
	c-1.1-0.1-2.4-0.2-2.8-0.3c-0.4-0.1-1.7-0.2-2.8-0.3c-1.1-0.1-5.5-1-9.7-1.9c-4.2-0.9-7.9-1.8-8.1-1.8c-1.4-0.3-2.2-0.5-4.1-0.9
	c-1.1-0.3-2.3-0.5-2.7-0.6c-0.3-0.1-1.7-0.4-3.1-0.7c-2-0.5-2.4-0.7-2.3-1.1c0.1-0.5,2.6-10.6,2.8-11.6c0.1-0.3,0.5-2.3,1.1-4.5
	c0.5-2.2,1.5-6.2,2.1-8.7c0.6-2.6,1.8-7.6,2.7-11.1c0.9-3.5,1.6-6.7,1.7-7c0.1-0.3,0.5-2.4,1.1-4.5c0.5-2.1,1.6-6.6,2.4-9.8
	c0.8-3.3,1.9-7.9,2.5-10.3c0.6-2.4,1.6-6.5,2.2-9.1l1.1-4.7l1.6,0.1c0.9,0.1,2.3,0.2,3.2,0.4c0.8,0.1,2.6,0.1,4-0.1
	c2.3-0.3,2.5-0.2,4.3,0.6c1.8,0.8,2.5,0.9,2.5,0.2c0-0.4-6.6-3.6-8.3-4c-0.7-0.2-1.6-0.3-2-0.3c-0.4,0-1-0.3-1.3-0.6
	c-0.7-0.7-1.6-0.8-2.5-0.3c-0.7,0.4-0.7,0.3-0.3-1.9c0.3-1.2,0.5-1.6,0.9-1.4c0.5,0.1,2.7,0.6,4.8,1c0.4,0.1,1,0.2,1.4,0.3
	c1,0.2,14,2.7,14.8,2.9c0.4,0.1,2.5,0.5,4.5,0.9c2.1,0.4,4.3,0.8,5,0.9c1.2,0.1,1.2,0.2,1.2,1.2c0,0.6-0.4,3.7-0.9,6.9
	c-0.4,3.2-0.9,6.5-1,7.3c-0.2,1.5-0.6,2.3-1.1,2.3c-0.5,0-2.3,2.1-2.8,3.1c-0.3,0.7-0.3,1.2-0.1,2c0.7,2.2,0.6,3.3-0.5,4.4
	c-0.7,0.7-0.9,1.2-0.7,1.5c0.2,0.4,0.5,0.3,1.3-0.4c0.5-0.5,1.2-0.8,1.5-0.8c0.5,0,0.5,1,0,7.2c-0.1,0.9-0.2,3-0.3,4.5
	s-0.2,3.4-0.3,4.2c-0.1,0.8-0.2,2.8-0.3,4.5c-0.1,1.7-0.2,3.6-0.3,4.2c-0.1,0.6-0.2,2.6-0.3,4.5c-0.1,1.9-0.2,3.8-0.3,4.2
	c-0.1,0.4-0.2,2.5-0.3,4.5c-0.1,2.1-0.3,4-0.3,4.2c0,0.3-0.2,2.2-0.3,4.4c-0.1,2.1-0.3,4.1-0.3,4.4c0,0.3-0.2,2.2-0.3,4.4
	c-0.1,2.1-0.3,4.2-0.3,4.5c-0.1,0.3-0.1,1.5-0.2,2.6C146.9,248.5,146.6,249.1,146.1,248.6z"/>
<path id="yukon" class="st7" d="M65,130.5c-0.3-0.2-1.7-0.9-2.9-1.5c-2-0.9-8.8-4.4-19.9-10.3c-3.5-1.9-16.5-9.9-26.1-16.2
	c-3.4-2.2-4.9-3.4-4.9-3.8c0-0.8,1-2.3,2-3.1c1.8-1.4,0.8-2.3-2.8-2.5c-0.7,0-1-0.2-1.1-0.7c-0.1-0.3-0.3-0.6-0.4-0.6
	c-0.6,0.2-1.6-0.4-1.8-1c-0.1-0.5,0.6-1.8,2.9-5.2c4.3-6.3,12.3-18.1,18.4-27.2c4.9-7.3,11.2-16.6,19.8-29.3l3.8-5.7l1,0.3
	c2,0.7,2.6,1.4,2.9,3.4c0.1,1,0.5,2.5,0.9,3.3s0.8,2,0.9,2.6c0.1,0.9,0.5,1.5,1.5,2.3c1.2,1,1.2,1.1,0.8,1.6
	c-0.7,0.8-3.8,5.9-4.6,7.4c-0.3,0.7-0.9,2-1.2,3c-0.3,0.9-0.9,2.4-1.3,3.1c-1.4,2.7-1.4,2.5,1.9,5c2.3,1.7,3,2.4,3,3
	c0,0.4-0.5,1.7-1.1,2.9c-0.7,1.4-1.2,2.7-1.3,3.9c-0.2,1.7-0.1,1.7,1,2.6c1.2,0.9,1.2,0.7,0.8,4.3c0,0.1-0.4,0.3-0.9,0.4
	c-1,0.2-1.9,1.3-1.9,2.3c0,0.3-0.3,1.1-0.6,1.7c-0.7,1.2-0.5,2.2,0.4,3c0.4,0.3,0.5,0.8,0.3,1.6c-0.1,1,0,1.5,0.5,2.2
	c0.5,0.7,0.7,1.5,0.7,2.7c0,1,0.3,2.2,0.6,2.8c0.5,1,0.5,1.1-0.1,3.3c-0.8,2.8-1.2,5.1-1.4,8c-0.1,1.3-0.3,2.8-0.5,3.4
	c-0.3,0.9-0.3,1.1,0.4,1.8c1,1.1,1.3,1.7,1.9,4.1c0.3,1.1,0.9,2.8,1.4,3.6c0.6,1.2,0.8,1.7,0.5,1.8c-0.2,0.1-0.5,0.8-0.6,1.7
	c-0.1,0.8-0.3,1.9-0.4,2.4c-0.3,1,0.1,1.4,2.7,2.6c0.9,0.4,2.3,1.2,2.9,1.6c0.7,0.5,1.6,0.8,2,0.8l0.8,0l-0.1,3.3
	c0,1.8-0.1,3.3-0.2,3.4C65.6,130.9,65.3,130.7,65,130.5z"/>
</svg>
